<svg width="2560" height="1440" viewBox="0 0 2560 1440" fill="none" xmlns="http://www.w3.org/2000/svg">
<path d="M1281.58 944.228L1479.06 643.258L1281.58 345.459L1080.94 644.842L1281.58 944.228Z" stroke="black" stroke-width="7.372" stroke-miterlimit="10"/>
<path d="M1281.77 979.219L1502.33 643.073L1281.77 310.468L1057.67 644.843L1281.77 979.219Z" stroke="black" stroke-width="8.23333" stroke-miterlimit="10"/>
<path d="M1344.36 438.555C1326.44 450.66 1304.84 457.729 1281.58 457.729C1258.33 457.729 1236.73 450.66 1218.81 438.555" stroke="black" stroke-width="7.372" stroke-miterlimit="10"/>
<path d="M1329.51 418.864C1314.98 425.736 1298.73 429.578 1281.58 429.578C1262.75 429.578 1245.01 424.944 1229.43 416.753" stroke="black" stroke-width="7.372" stroke-miterlimit="10"/>
<path d="M1245.19 891.216C1266.29 896.968 1282.64 914.215 1287.11 935.809" stroke="black" stroke-width="7.372" stroke-miterlimit="10"/>
<path d="M1231.7 868.115C1262.28 868.851 1288.59 886.824 1301.29 912.692" stroke="black" stroke-width="7.372" stroke-miterlimit="10"/>
<path d="M1218.77 847.099C1222.37 846.696 1226.03 846.491 1229.74 846.491C1264.92 846.491 1295.77 865.058 1313.01 892.928" stroke="black" stroke-width="7.372" stroke-miterlimit="10"/>
<path d="M1280.99 698V752.228" stroke="black" stroke-width="7.372" stroke-miterlimit="10"/>
<path d="M1280.99 457.729V593.885" stroke="black" stroke-width="7.372" stroke-miterlimit="10"/>
<path d="M1340.9 685.201L1355.23 766.505" stroke="black" stroke-width="7.372" stroke-miterlimit="10"/>
<path d="M1300.17 454.246L1325.21 596.243" stroke="black" stroke-width="7.372" stroke-miterlimit="10"/>
<path d="M1395.87 661.072L1421.64 731.87" stroke="black" stroke-width="7.372" stroke-miterlimit="10"/>
<path d="M1319.47 451.175L1380 617.476" stroke="black" stroke-width="7.372" stroke-miterlimit="10"/>
<path d="M1452.83 643.096L1464.61 663.495" stroke="black" stroke-width="7.372" stroke-miterlimit="10"/>
<path d="M1337.77 443.803L1448.17 635.011" stroke="black" stroke-width="7.372" stroke-miterlimit="10"/>
<path d="M1113.11 636.246L1225.95 440.795" stroke="black" stroke-width="7.372" stroke-miterlimit="10"/>
<path d="M1096.42 665.154L1110.65 640.5" stroke="black" stroke-width="7.372" stroke-miterlimit="10"/>
<path d="M1182.83 615.167L1243.23 449.218" stroke="black" stroke-width="7.372" stroke-miterlimit="10"/>
<path d="M1140.76 730.751L1166.53 659.939" stroke="black" stroke-width="7.372" stroke-miterlimit="10"/>
<path d="M1236.6 597.213L1261.85 454.041" stroke="black" stroke-width="7.372" stroke-miterlimit="10"/>
<path d="M1212.24 735.361L1220.99 685.729" stroke="black" stroke-width="7.372" stroke-miterlimit="10"/>
<path d="M1139.61 643.542C1139.61 643.542 1270.79 531.098 1423.06 643.542C1423.06 643.542 1288.36 761.842 1139.61 643.542Z" stroke="black" stroke-width="7.372" stroke-miterlimit="10"/>
<path d="M1326.88 644.843C1326.88 670.735 1305.89 691.724 1280 691.724C1254.11 691.724 1233.12 670.735 1233.12 644.843C1233.12 618.951 1254.11 597.962 1280 597.962C1305.89 597.962 1326.88 618.951 1326.88 644.843Z" stroke="black" stroke-width="7.372" stroke-miterlimit="10"/>
<path d="M1326.11 635.537C1320.17 654.621 1302.37 668.478 1281.33 668.478C1259.15 668.478 1240.56 653.07 1235.69 632.372" stroke="black" stroke-width="7.372" stroke-miterlimit="10"/>
<path d="M1315.26 892.914C1311.13 889.543 1308.5 884.417 1308.5 878.675C1308.5 868.523 1316.73 860.293 1326.88 860.293C1329.92 860.293 1332.79 861.031 1335.31 862.337" stroke="black" stroke-width="7.372" stroke-miterlimit="10"/>
<path d="M1288.38 866.687C1293.48 850.277 1308.79 838.362 1326.88 838.362C1334.68 838.362 1341.96 840.578 1348.14 844.414" stroke="black" stroke-width="7.372" stroke-miterlimit="10"/>
<path d="M1268.95 852.521C1278.92 830.471 1301.11 815.127 1326.88 815.127C1339.07 815.127 1350.46 818.559 1360.13 824.511" stroke="black" stroke-width="7.372" stroke-miterlimit="10"/>
<path d="M1243.98 847.038C1256.72 813.668 1289.03 789.964 1326.88 789.964C1344.75 789.964 1361.39 795.25 1375.32 804.343" stroke="black" stroke-width="7.372" stroke-miterlimit="10"/>
<path d="M1217.99 845.165C1232.3 798.615 1275.64 764.776 1326.88 764.776C1350.19 764.776 1371.86 771.776 1389.91 783.789" stroke="black" stroke-width="7.372" stroke-miterlimit="10"/>
<path d="M1206.82 835.707C1210.23 834.158 1214.01 833.295 1217.99 833.295C1219.44 833.295 1220.85 833.408 1222.24 833.627" stroke="black" stroke-width="7.372" stroke-miterlimit="10"/>
<path d="M1189.56 806.913C1198.03 802.389 1207.71 799.826 1217.99 799.826C1226.02 799.826 1233.68 801.387 1240.68 804.226" stroke="black" stroke-width="7.372" stroke-miterlimit="10"/>
<path d="M1172.3 781.16C1185.74 773.383 1201.35 768.931 1217.99 768.931C1233.76 768.931 1248.59 772.924 1261.54 779.957" stroke="black" stroke-width="7.372" stroke-miterlimit="10"/>
<path d="M1261.54 779.957C1263.02 780.76 1264.47 781.6 1265.89 782.48" stroke="black" stroke-width="7.372" stroke-miterlimit="10"/>
<path d="M1153.64 754.141C1172.4 742.742 1194.43 736.177 1217.99 736.177C1250.05 736.177 1279.26 748.33 1301.29 768.279" stroke="black" stroke-width="7.372" stroke-miterlimit="10"/>
<path d="M1453.75 642.01C1453.75 646.657 1449.98 650.425 1445.33 650.425C1440.68 650.425 1436.92 646.657 1436.92 642.01C1436.92 637.362 1440.68 633.594 1445.33 633.594C1449.98 633.594 1453.75 637.362 1453.75 642.01Z" stroke="black" stroke-width="7.372" stroke-miterlimit="10"/>
<path d="M1127.34 642.01C1127.34 646.657 1123.58 650.425 1118.93 650.425C1114.28 650.425 1110.51 646.657 1110.51 642.01C1110.51 637.362 1114.28 633.594 1118.93 633.594C1123.58 633.594 1127.34 637.362 1127.34 642.01Z" stroke="black" stroke-width="7.372" stroke-miterlimit="10"/>
<path d="M1154.65 1093.86H1160.83V1131.74H1184.25V1137.11H1154.65V1093.86Z" fill="black"/>
<path d="M1186.41 1093.86H1192.59V1137.11H1186.41V1093.86Z" fill="black"/>
<path d="M1228.93 1130.38C1230.7 1129.23 1231.59 1127.41 1231.59 1124.94C1231.59 1120.12 1228.06 1117.71 1221.02 1117.71H1206.81V1132.11H1221.02C1224.52 1132.11 1227.16 1131.53 1228.93 1130.38ZM1206.81 1098.86V1112.71H1219.47C1222.65 1112.71 1225.09 1112.12 1226.8 1110.94C1228.51 1109.77 1229.36 1108.05 1229.36 1105.79C1229.36 1103.52 1228.51 1101.8 1226.8 1100.63C1225.09 1099.45 1222.65 1098.86 1219.47 1098.86H1206.81ZM1235.66 1118.48C1237.11 1120.32 1237.83 1122.63 1237.83 1125.43C1237.83 1129.18 1236.41 1132.07 1233.59 1134.09C1230.77 1136.11 1226.66 1137.11 1221.27 1137.11H1200.63V1093.86H1220.03C1224.97 1093.86 1228.79 1094.85 1231.49 1096.82C1234.19 1098.8 1235.54 1101.54 1235.54 1105.04C1235.54 1107.31 1235.01 1109.27 1233.96 1110.91C1232.91 1112.56 1231.5 1113.82 1229.73 1114.68C1232.24 1115.38 1234.22 1116.65 1235.66 1118.48Z" fill="black"/>
<path d="M1270.55 1129.95C1273.08 1128.51 1275.08 1126.52 1276.54 1123.98C1278 1121.45 1278.73 1118.62 1278.73 1115.49C1278.73 1112.36 1278 1109.52 1276.54 1106.99C1275.08 1104.46 1273.08 1102.47 1270.55 1101.03C1268.01 1099.59 1265.16 1098.86 1261.99 1098.86C1258.81 1098.86 1255.94 1099.59 1253.37 1101.03C1250.79 1102.47 1248.77 1104.46 1247.31 1106.99C1245.85 1109.52 1245.12 1112.36 1245.12 1115.49C1245.12 1118.62 1245.85 1121.45 1247.31 1123.98C1248.77 1126.52 1250.79 1128.51 1253.37 1129.95C1255.94 1131.39 1258.81 1132.11 1261.99 1132.11C1265.16 1132.11 1268.01 1131.39 1270.55 1129.95V1129.95ZM1250.18 1134.74C1246.68 1132.82 1243.93 1130.17 1241.93 1126.79C1239.94 1123.42 1238.94 1119.65 1238.94 1115.49C1238.94 1111.33 1239.94 1107.56 1241.93 1104.18C1243.93 1100.8 1246.68 1098.15 1250.18 1096.24C1253.69 1094.32 1257.62 1093.36 1261.99 1093.36C1266.31 1093.36 1270.23 1094.32 1273.73 1096.24C1277.23 1098.15 1279.97 1100.79 1281.95 1104.15C1283.92 1107.51 1284.91 1111.28 1284.91 1115.49C1284.91 1119.69 1283.92 1123.47 1281.95 1126.83C1279.97 1130.18 1277.23 1132.82 1273.73 1134.74C1270.23 1136.65 1266.31 1137.61 1261.99 1137.61C1257.62 1137.61 1253.69 1136.65 1250.18 1134.74" fill="black"/>
<path d="M1326.62 1093.86V1137.11H1321.56L1295.6 1104.86V1137.11H1289.42V1093.86H1294.49L1320.44 1126.11V1093.86H1326.62Z" fill="black"/>
<path d="M1360.05 1121.36L1350.72 1100.16L1341.39 1121.36H1360.05ZM1362.22 1126.3H1339.23L1334.47 1137.11H1328.11L1347.69 1093.86H1353.81L1373.46 1137.11H1366.97L1362.22 1126.3Z" fill="black"/>
<path d="M1381.37 1099.23H1366.54V1093.86H1402.32V1099.23H1387.49V1137.11H1381.37V1099.23Z" fill="black"/>
<path d="M1404.11 1093.86H1410.29V1137.11H1404.11V1093.86Z" fill="black"/>
<path d="M1204.83 1067.83C1206.6 1066.68 1207.49 1064.87 1207.49 1062.39C1207.49 1057.57 1203.96 1055.17 1196.92 1055.17H1182.71V1069.56H1196.92C1200.42 1069.56 1203.06 1068.99 1204.83 1067.83ZM1182.71 1036.32V1050.16H1195.37C1198.55 1050.16 1200.99 1049.57 1202.7 1048.4C1204.41 1047.22 1205.26 1045.51 1205.26 1043.24C1205.26 1040.97 1204.41 1039.25 1202.7 1038.08C1200.99 1036.91 1198.55 1036.32 1195.37 1036.32H1182.71ZM1211.57 1055.94C1213.01 1057.77 1213.73 1060.09 1213.73 1062.89C1213.73 1066.64 1212.32 1069.52 1209.49 1071.54C1206.67 1073.56 1202.56 1074.57 1197.17 1074.57H1176.53V1031.31H1195.93C1200.87 1031.31 1204.69 1032.3 1207.39 1034.28C1210.09 1036.26 1211.44 1039 1211.44 1042.5C1211.44 1044.76 1210.92 1046.72 1209.87 1048.37C1208.81 1050.02 1207.4 1051.27 1205.63 1052.14C1208.15 1052.84 1210.12 1054.1 1211.57 1055.94Z" fill="black"/>
<path d="M1244.01 1053.62C1246.07 1051.93 1247.1 1049.52 1247.1 1046.39C1247.1 1043.26 1246.07 1040.86 1244.01 1039.19C1241.95 1037.52 1238.96 1036.69 1235.05 1036.69H1224.54V1056.15H1235.05C1238.96 1056.15 1241.95 1055.31 1244.01 1053.62V1053.62ZM1247.28 1074.57L1237.95 1061.28C1236.8 1061.37 1235.89 1061.41 1235.23 1061.41H1224.54V1074.57H1218.36V1031.31H1235.23C1240.83 1031.31 1245.24 1032.65 1248.46 1035.33C1251.67 1038.01 1253.28 1041.69 1253.28 1046.39C1253.28 1049.73 1252.45 1052.57 1250.8 1054.92C1249.16 1057.27 1246.81 1058.98 1243.76 1060.05L1254.02 1074.57H1247.28Z" fill="black"/>
<path d="M1262.79 1070.12C1259.58 1066.82 1257.97 1062.09 1257.97 1055.91V1031.31H1264.15V1055.66C1264.15 1064.93 1268.21 1069.56 1276.32 1069.56C1280.28 1069.56 1283.31 1068.42 1285.41 1066.13C1287.51 1063.85 1288.56 1060.36 1288.56 1055.66V1031.31H1294.55V1055.91C1294.55 1062.13 1292.95 1066.87 1289.73 1070.15C1286.52 1073.42 1282.03 1075.06 1276.26 1075.06C1270.49 1075.06 1266 1073.42 1262.79 1070.12Z" fill="black"/>
<path d="M1339.48 1031.31V1074.57H1334.41L1308.46 1042.31V1074.57H1302.28V1031.31H1307.34L1333.3 1063.57V1031.31H1339.48Z" fill="black"/>
<path d="M1375.59 1067.4C1378.13 1065.96 1380.12 1063.97 1381.59 1061.44C1383.05 1058.9 1383.78 1056.07 1383.78 1052.94C1383.78 1049.81 1383.05 1046.98 1381.59 1044.44C1380.12 1041.91 1378.13 1039.92 1375.59 1038.48C1373.06 1037.04 1370.21 1036.32 1367.04 1036.32C1363.86 1036.32 1360.99 1037.04 1358.42 1038.48C1355.84 1039.92 1353.82 1041.91 1352.36 1044.44C1350.9 1046.98 1350.17 1049.81 1350.17 1052.94C1350.17 1056.07 1350.9 1058.9 1352.36 1061.44C1353.82 1063.97 1355.84 1065.96 1358.42 1067.4C1360.99 1068.84 1363.86 1069.56 1367.04 1069.56C1370.21 1069.56 1373.06 1068.84 1375.59 1067.4V1067.4ZM1355.23 1072.19C1351.73 1070.27 1348.98 1067.63 1346.98 1064.25C1344.98 1060.87 1343.99 1057.1 1343.99 1052.94C1343.99 1048.78 1344.98 1045.01 1346.98 1041.63C1348.98 1038.25 1351.73 1035.61 1355.23 1033.69C1358.73 1031.78 1362.67 1030.82 1367.04 1030.82C1371.36 1030.82 1375.27 1031.78 1378.78 1033.69C1382.28 1035.61 1385.02 1038.24 1387 1041.6C1388.97 1044.96 1389.96 1048.74 1389.96 1052.94C1389.96 1057.14 1388.97 1060.92 1387 1064.28C1385.02 1067.64 1382.28 1070.27 1378.78 1072.19C1375.27 1074.1 1371.36 1075.06 1367.04 1075.06C1362.67 1075.06 1358.73 1074.1 1355.23 1072.19" fill="black"/>
</svg>
